<svg xmlns="http://www.w3.org/2000/svg" xmlns:xlink="http://www.w3.org/1999/xlink" zoomAndPan="magnify" viewBox="0 0 619.5 214.499994" preserveAspectRatio="xMidYMid meet" version="1.0"><defs></defs><path fill="currentColor" d="M 105.628906 115.066406 C 105.039062 115.066406 42.820312 115.246094 41.136719 115.148438 C 41.136719 79.992188 41.101562 44.976562 41.101562 9.574219 C 32.195312 9.574219 13.90625 9.566406 13.90625 9.566406 C 13.90625 9.566406 13.609375 26.546875 13.609375 33.574219 C 13.609375 68.359375 13.609375 103.144531 13.609375 137.929688 L 13.609375 142.078125 C 13.609375 142.078125 15.066406 142.078125 16.542969 142.078125 C 45.28125 141.980469 105.261719 142.078125 105.628906 142.078125 Z M 105.628906 115.066406 " fill-opacity="1" fill-rule="nonzero"></path><path fill="currentColor" d="M 183.320312 9.914062 L 210.265625 9.914062 L 210.265625 141.726562 L 183.320312 141.726562 Z M 183.320312 9.914062 " fill-opacity="1" fill-rule="nonzero"></path><path fill="currentColor" d="M 303.320312 7.085938 C 307.367188 7.078125 311.414062 7.023438 315.457031 6.933594 C 318.589844 6.867188 320.707031 8.320312 322.105469 11.09375 C 331.796875 30.355469 341.605469 49.546875 351.386719 68.753906 C 358.597656 82.914062 365.761719 97.097656 373.117188 111.1875 C 374.71875 114.25 374.753906 116.769531 373.117188 119.816406 C 368.679688 128.054688 364.585938 136.480469 360.207031 144.753906 C 359.535156 146.027344 358.097656 146.894531 357.019531 147.957031 C 355.964844 146.867188 354.574219 145.953125 353.914062 144.660156 C 331.59375 101.003906 309.34375 57.320312 287.082031 13.640625 C 284.46875 8.511719 285.480469 6.890625 291.113281 7.015625 C 293.210938 7.0625 295.304688 7.0625 297.398438 7.070312 C 299.375 7.085938 301.34375 7.085938 303.320312 7.078125 Z M 357.089844 139.644531 C 360.890625 132.246094 363.996094 125.816406 367.472656 119.589844 C 369.128906 116.636719 368.96875 114.257812 367.4375 111.332031 C 361.023438 99.121094 354.820312 86.796875 348.558594 74.5 C 338.488281 54.753906 328.4375 34.988281 318.296875 15.269531 C 317.683594 14.082031 316.414062 12.402344 315.402344 12.367188 C 307.957031 12.121094 300.496094 12.230469 292.191406 12.230469 C 313.914062 54.867188 335.238281 96.738281 357.09375 139.636719 Z M 357.089844 139.644531 " fill-opacity="1" fill-rule="nonzero"></path><path fill="currentColor" d="M 399.84375 80.652344 C 395.535156 80.652344 391.222656 80.675781 386.914062 80.652344 C 382.410156 80.621094 381.503906 79.238281 383.515625 75.273438 C 391.304688 59.902344 399.140625 44.5625 406.96875 29.210938 C 410.09375 23.066406 413.320312 16.976562 416.320312 10.773438 C 417.605469 8.109375 419.335938 6.910156 422.351562 6.957031 C 430.972656 7.089844 439.589844 6.972656 448.210938 7.015625 C 452.664062 7.039062 453.597656 8.492188 451.59375 12.449219 C 440.699219 33.96875 429.722656 55.453125 418.839844 76.980469 C 417.441406 79.746094 415.5625 80.921875 412.40625 80.734375 C 408.230469 80.480469 404.035156 80.675781 399.84375 80.667969 Z M 445.972656 12.1875 C 438.386719 12.1875 431.539062 12.285156 424.699219 12.136719 C 422.066406 12.074219 420.789062 13.183594 419.648438 15.449219 C 410.6875 33.273438 401.578125 51.027344 392.53125 68.816406 C 391.464844 70.917969 390.484375 73.066406 389.269531 75.570312 C 396.789062 75.570312 403.570312 75.46875 410.339844 75.625 C 412.75 75.683594 414.054688 75.003906 415.183594 72.75 C 422.394531 58.316406 429.796875 43.980469 437.128906 29.605469 C 439.957031 24.054688 442.769531 18.496094 445.980469 12.179688 Z M 445.972656 12.1875 " fill-opacity="1" fill-rule="nonzero"></path><path fill="currentColor" d="M 447.550781 93.695312 L 447.550781 100.273438 L 454.234375 100.273438 L 454.234375 101.730469 L 447.550781 101.730469 L 447.550781 108.414062 L 454.988281 108.414062 L 454.988281 109.871094 L 445.785156 109.871094 L 445.785156 92.226562 L 454.988281 92.226562 L 454.988281 93.6875 L 447.550781 93.6875 Z M 447.550781 93.695312 " fill-opacity="1" fill-rule="nonzero"></path><path fill="currentColor" d="M 466.363281 96.402344 C 467.121094 95.035156 468.152344 93.964844 469.460938 93.199219 C 470.769531 92.4375 472.238281 92.054688 473.847656 92.054688 C 475.8125 92.054688 477.496094 92.519531 478.902344 93.457031 C 480.3125 94.390625 481.328125 95.699219 481.964844 97.398438 L 479.898438 97.398438 C 479.398438 96.207031 478.628906 95.273438 477.59375 94.601562 C 476.5625 93.925781 475.3125 93.589844 473.851562 93.589844 C 472.558594 93.589844 471.398438 93.890625 470.359375 94.496094 C 469.328125 95.101562 468.511719 95.96875 467.925781 97.105469 C 467.335938 98.242188 467.042969 99.554688 467.042969 101.050781 C 467.042969 102.546875 467.335938 103.855469 467.925781 104.984375 C 468.519531 106.117188 469.328125 106.976562 470.359375 107.582031 C 471.390625 108.1875 472.558594 108.488281 473.851562 108.488281 C 475.3125 108.488281 476.5625 108.160156 477.59375 107.492188 C 478.628906 106.828125 479.398438 105.90625 479.898438 104.730469 L 481.964844 104.730469 C 481.328125 106.414062 480.304688 107.71875 478.890625 108.636719 C 477.476562 109.566406 475.800781 110.023438 473.847656 110.023438 C 472.230469 110.023438 470.769531 109.640625 469.460938 108.875 C 468.152344 108.113281 467.121094 107.050781 466.363281 105.6875 C 465.609375 104.328125 465.226562 102.777344 465.226562 101.050781 C 465.226562 99.320312 465.609375 97.765625 466.363281 96.394531 Z M 466.363281 96.402344 " fill-opacity="1" fill-rule="nonzero"></path><path fill="currentColor" d="M 496.511719 108.90625 C 495.1875 108.144531 494.136719 107.074219 493.375 105.703125 C 492.613281 104.335938 492.230469 102.785156 492.230469 101.050781 C 492.230469 99.3125 492.613281 97.765625 493.375 96.394531 C 494.136719 95.027344 495.1875 93.957031 496.511719 93.191406 C 497.835938 92.429688 499.316406 92.046875 500.949219 92.046875 C 502.578125 92.046875 504.082031 92.429688 505.40625 93.191406 C 506.730469 93.957031 507.78125 95.027344 508.535156 96.394531 C 509.289062 97.765625 509.671875 99.3125 509.671875 101.050781 C 509.671875 102.785156 509.289062 104.335938 508.535156 105.703125 C 507.78125 107.074219 506.738281 108.144531 505.40625 108.90625 C 504.082031 109.667969 502.59375 110.050781 500.949219 110.050781 C 499.300781 110.050781 497.835938 109.667969 496.511719 108.90625 Z M 504.480469 107.605469 C 505.519531 107 506.34375 106.128906 506.949219 104.992188 C 507.554688 103.855469 507.855469 102.546875 507.855469 101.050781 C 507.855469 99.554688 507.554688 98.242188 506.949219 97.113281 C 506.34375 95.992188 505.519531 95.125 504.480469 94.519531 C 503.441406 93.910156 502.265625 93.613281 500.949219 93.613281 C 499.632812 93.613281 498.464844 93.910156 497.417969 94.519531 C 496.375 95.125 495.554688 95.992188 494.945312 97.113281 C 494.339844 98.242188 494.042969 99.554688 494.042969 101.050781 C 494.042969 102.546875 494.339844 103.863281 494.945312 104.992188 C 495.554688 106.125 496.375 107 497.417969 107.605469 C 498.457031 108.210938 499.632812 108.511719 500.949219 108.511719 C 502.265625 108.511719 503.433594 108.210938 504.480469 107.605469 Z M 504.480469 107.605469 " fill-opacity="1" fill-rule="nonzero"></path><path fill="currentColor" d="M 459.9375 126.011719 L 459.9375 143.632812 L 458.171875 143.632812 L 458.171875 135.386719 L 448.613281 135.386719 L 448.613281 143.632812 L 446.847656 143.632812 L 446.847656 126.011719 L 448.613281 126.011719 L 448.613281 133.929688 L 458.171875 133.929688 L 458.171875 126.011719 Z M 459.9375 126.011719 " fill-opacity="1" fill-rule="nonzero"></path><path fill="currentColor" d="M 481.738281 139.441406 L 473.726562 139.441406 L 472.183594 143.625 L 470.320312 143.625 L 476.75 126.230469 L 478.738281 126.230469 L 485.144531 143.625 L 483.28125 143.625 Z M 481.207031 137.984375 L 477.730469 128.449219 L 474.25 137.984375 Z M 481.207031 137.984375 " fill-opacity="1" fill-rule="nonzero"></path><path fill="currentColor" d="M 506.289062 136.046875 C 506.980469 136.867188 507.324219 137.828125 507.324219 138.917969 C 507.324219 139.808594 507.097656 140.609375 506.65625 141.328125 C 506.207031 142.039062 505.558594 142.609375 504.703125 143.019531 C 503.84375 143.429688 502.820312 143.640625 501.628906 143.640625 L 495.53125 143.640625 L 495.53125 126.019531 L 501.457031 126.019531 C 503.238281 126.019531 504.589844 126.429688 505.527344 127.253906 C 506.460938 128.078125 506.925781 129.148438 506.925781 130.457031 C 506.925781 131.550781 506.632812 132.433594 506.042969 133.113281 C 505.453125 133.792969 504.695312 134.265625 503.777344 134.535156 C 504.769531 134.722656 505.609375 135.222656 506.296875 136.046875 Z M 497.289062 133.800781 L 501.398438 133.800781 C 502.585938 133.800781 503.507812 133.515625 504.15625 132.957031 C 504.800781 132.394531 505.128906 131.617188 505.128906 130.621094 C 505.128906 129.625 504.808594 128.886719 504.15625 128.324219 C 503.515625 127.769531 502.5625 127.492188 501.320312 127.492188 L 497.289062 127.492188 Z M 504.488281 141.238281 C 505.199219 140.632812 505.558594 139.800781 505.558594 138.738281 C 505.558594 137.675781 505.183594 136.839844 504.433594 136.203125 C 503.6875 135.574219 502.683594 135.261719 501.417969 135.261719 L 497.28125 135.261719 L 497.28125 142.144531 L 501.492188 142.144531 C 502.773438 142.144531 503.769531 141.84375 504.480469 141.238281 Z M 504.488281 141.238281 " fill-opacity="1" fill-rule="nonzero"></path><path fill="currentColor" d="M 518.144531 126.011719 L 519.910156 126.011719 L 519.910156 143.632812 L 518.144531 143.632812 Z M 518.144531 126.011719 " fill-opacity="1" fill-rule="nonzero"></path><path fill="currentColor" d="M 541.789062 126.011719 L 541.789062 127.472656 L 536.894531 127.472656 L 536.894531 143.632812 L 535.128906 143.632812 L 535.128906 127.472656 L 530.210938 127.472656 L 530.210938 126.011719 Z M 541.789062 126.011719 " fill-opacity="1" fill-rule="nonzero"></path><path fill="currentColor" d="M 562.355469 139.441406 L 554.34375 139.441406 L 552.800781 143.625 L 550.9375 143.625 L 557.367188 126.230469 L 559.355469 126.230469 L 565.761719 143.625 L 563.898438 143.625 Z M 561.824219 137.984375 L 558.347656 128.449219 L 554.867188 137.984375 Z M 561.824219 137.984375 " fill-opacity="1" fill-rule="nonzero"></path><path fill="currentColor" d="M 586.457031 126.011719 L 586.457031 127.472656 L 581.566406 127.472656 L 581.566406 143.632812 L 579.800781 143.632812 L 579.800781 127.472656 L 574.882812 127.472656 L 574.882812 126.011719 Z M 586.457031 126.011719 " fill-opacity="1" fill-rule="nonzero"></path><path fill="currentColor" d="M 597.636719 143.199219 C 596.753906 142.796875 596.058594 142.234375 595.558594 141.507812 C 595.054688 140.78125 594.785156 139.980469 594.75 139.089844 L 596.613281 139.089844 C 596.695312 139.953125 597.074219 140.699219 597.75 141.351562 C 598.421875 141.996094 599.402344 142.324219 600.699219 142.324219 C 601.886719 142.324219 602.835938 142.015625 603.535156 141.402344 C 604.230469 140.789062 604.582031 140.011719 604.582031 139.070312 C 604.582031 138.3125 604.386719 137.707031 604.003906 137.242188 C 603.617188 136.777344 603.136719 136.433594 602.570312 136.210938 C 602 135.984375 601.207031 135.738281 600.195312 135.46875 C 599.023438 135.148438 598.085938 134.839844 597.398438 134.535156 C 596.710938 134.234375 596.117188 133.765625 595.632812 133.121094 C 595.144531 132.484375 594.898438 131.617188 594.898438 130.523438 C 594.898438 129.617188 595.128906 128.804688 595.601562 128.09375 C 596.074219 127.382812 596.738281 126.820312 597.59375 126.414062 C 598.453125 126.011719 599.433594 125.808594 600.539062 125.808594 C 602.171875 125.808594 603.488281 126.207031 604.484375 127.007812 C 605.488281 127.808594 606.0625 128.832031 606.210938 130.097656 L 604.296875 130.097656 C 604.175781 129.371094 603.78125 128.734375 603.113281 128.167969 C 602.441406 127.605469 601.535156 127.320312 600.390625 127.320312 C 599.328125 127.320312 598.453125 127.605469 597.742188 128.167969 C 597.039062 128.726562 596.679688 129.5 596.679688 130.472656 C 596.679688 131.210938 596.875 131.8125 597.253906 132.261719 C 597.644531 132.714844 598.125 133.058594 598.707031 133.292969 C 599.285156 133.523438 600.070312 133.777344 601.066406 134.046875 C 602.210938 134.371094 603.128906 134.683594 603.839844 134.992188 C 604.542969 135.304688 605.140625 135.777344 605.628906 136.414062 C 606.117188 137.046875 606.363281 137.910156 606.363281 138.988281 C 606.363281 139.808594 606.144531 140.59375 605.703125 141.328125 C 605.269531 142.070312 604.617188 142.667969 603.765625 143.117188 C 602.914062 143.566406 601.878906 143.796875 600.691406 143.796875 C 599.5 143.796875 598.511719 143.597656 597.628906 143.191406 Z M 597.636719 143.199219 " fill-opacity="1" fill-rule="nonzero"></path><path fill="currentColor" d="M 14.378906 170.601562 L 609.308594 170.601562 L 609.308594 171.871094 L 14.378906 171.871094 Z M 14.378906 170.601562 " fill-opacity="1" fill-rule="nonzero"></path><path fill="currentColor" d="M 19.691406 191.148438 C 20.433594 189.839844 21.441406 188.804688 22.722656 188.066406 C 24.003906 187.324219 25.421875 186.957031 26.988281 186.957031 C 28.820312 186.957031 30.421875 187.398438 31.792969 188.289062 C 33.160156 189.171875 34.15625 190.429688 34.785156 192.058594 L 32.152344 192.058594 C 31.6875 191.042969 31.011719 190.265625 30.128906 189.71875 C 29.253906 189.171875 28.199219 188.894531 26.980469 188.894531 C 25.761719 188.894531 24.75 189.171875 23.816406 189.71875 C 22.878906 190.265625 22.144531 191.042969 21.613281 192.046875 C 21.082031 193.046875 20.816406 194.230469 20.816406 195.585938 C 20.816406 196.9375 21.082031 198.089844 21.613281 199.101562 C 22.144531 200.113281 22.878906 200.882812 23.816406 201.429688 C 24.75 201.976562 25.804688 202.25 26.980469 202.25 C 28.15625 202.25 29.253906 201.980469 30.128906 201.445312 C 31.003906 200.90625 31.679688 200.125 32.152344 199.117188 L 34.785156 199.117188 C 34.15625 200.726562 33.160156 201.96875 31.792969 202.851562 C 30.421875 203.726562 28.820312 204.167969 26.988281 204.167969 C 25.421875 204.167969 24.003906 203.800781 22.722656 203.066406 C 21.441406 202.332031 20.433594 201.316406 19.691406 200.015625 C 18.953125 198.710938 18.585938 197.238281 18.585938 195.59375 C 18.585938 193.945312 18.953125 192.472656 19.691406 191.164062 Z M 19.691406 191.148438 " fill-opacity="1" fill-rule="nonzero"></path><path fill="currentColor" d="M 55.945312 202.222656 L 61.839844 202.222656 L 61.839844 204.011719 L 53.753906 204.011719 L 53.753906 187.175781 L 55.953125 187.175781 L 55.953125 202.222656 Z M 55.945312 202.222656 " fill-opacity="1" fill-rule="nonzero"></path><path fill="currentColor" d="M 82.03125 187.175781 L 82.03125 197.820312 C 82.03125 199.320312 82.394531 200.433594 83.128906 201.152344 C 83.863281 201.878906 84.878906 202.238281 86.183594 202.238281 C 87.484375 202.238281 88.480469 201.878906 89.210938 201.152344 C 89.945312 200.425781 90.3125 199.320312 90.3125 197.820312 L 90.3125 187.175781 L 92.511719 187.175781 L 92.511719 197.800781 C 92.511719 199.199219 92.226562 200.382812 91.667969 201.339844 C 91.105469 202.296875 90.34375 203.007812 89.382812 203.480469 C 88.425781 203.941406 87.347656 204.183594 86.160156 204.183594 C 84.96875 204.183594 83.890625 203.949219 82.933594 203.480469 C 81.976562 203.015625 81.222656 202.296875 80.667969 201.339844 C 80.113281 200.382812 79.835938 199.199219 79.835938 197.800781 L 79.835938 187.175781 L 82.035156 187.175781 Z M 82.03125 187.175781 " fill-opacity="1" fill-rule="nonzero"></path><path fill="currentColor" d="M 121.984375 196.085938 C 122.496094 196.488281 122.898438 196.992188 123.191406 197.582031 C 123.488281 198.179688 123.640625 198.816406 123.640625 199.492188 C 123.640625 200.34375 123.421875 201.113281 122.988281 201.796875 C 122.554688 202.476562 121.917969 203.023438 121.097656 203.410156 C 120.265625 203.808594 119.285156 204.003906 118.164062 204.003906 L 111.882812 204.003906 L 111.882812 187.167969 L 117.921875 187.167969 C 119.066406 187.167969 120.039062 187.355469 120.847656 187.734375 C 121.65625 188.117188 122.253906 188.625 122.660156 189.269531 C 123.0625 189.914062 123.265625 190.636719 123.265625 191.4375 C 123.265625 192.433594 122.996094 193.265625 122.457031 193.914062 C 121.917969 194.566406 121.207031 195.039062 120.316406 195.332031 C 120.929688 195.425781 121.492188 195.675781 121.992188 196.078125 Z M 114.078125 194.449219 L 117.773438 194.449219 C 118.804688 194.449219 119.597656 194.207031 120.167969 193.722656 C 120.730469 193.234375 121.011719 192.570312 121.011719 191.714844 C 121.011719 190.863281 120.730469 190.195312 120.167969 189.710938 C 119.605469 189.222656 118.792969 188.984375 117.730469 188.984375 L 114.085938 188.984375 L 114.085938 194.441406 Z M 120.527344 201.429688 C 121.140625 200.914062 121.449219 200.195312 121.449219 199.28125 C 121.449219 198.367188 121.125 197.613281 120.480469 197.074219 C 119.839844 196.535156 118.976562 196.265625 117.902344 196.265625 L 114.085938 196.265625 L 114.085938 202.207031 L 117.976562 202.207031 C 119.066406 202.207031 119.921875 201.953125 120.535156 201.4375 Z M 120.527344 201.429688 " fill-opacity="1" fill-rule="nonzero"></path><path fill="currentColor" d="M 144.574219 188.960938 L 144.574219 194.589844 L 150.710938 194.589844 L 150.710938 196.398438 L 144.574219 196.398438 L 144.574219 202.199219 L 151.4375 202.199219 L 151.4375 204.011719 L 142.382812 204.011719 L 142.382812 187.152344 L 151.4375 187.152344 L 151.4375 188.960938 Z M 144.574219 188.960938 " fill-opacity="1" fill-rule="nonzero"></path><path fill="currentColor" d="M 172.824219 203.582031 C 171.945312 203.1875 171.257812 202.640625 170.757812 201.945312 C 170.257812 201.242188 170 200.433594 169.988281 199.519531 L 172.328125 199.519531 C 172.410156 200.304688 172.734375 200.972656 173.308594 201.511719 C 173.878906 202.050781 174.714844 202.320312 175.808594 202.320312 C 176.902344 202.320312 177.679688 202.058594 178.285156 201.535156 C 178.890625 201.007812 179.191406 200.335938 179.191406 199.511719 C 179.191406 198.871094 179.011719 198.347656 178.660156 197.941406 C 178.308594 197.539062 177.859375 197.230469 177.328125 197.019531 C 176.796875 196.8125 176.078125 196.585938 175.179688 196.347656 C 174.070312 196.054688 173.183594 195.773438 172.507812 195.480469 C 171.84375 195.1875 171.265625 194.738281 170.792969 194.117188 C 170.324219 193.496094 170.085938 192.667969 170.085938 191.617188 C 170.085938 190.699219 170.316406 189.890625 170.789062 189.179688 C 171.25 188.46875 171.910156 187.921875 172.753906 187.539062 C 173.601562 187.152344 174.574219 186.964844 175.667969 186.964844 C 177.246094 186.964844 178.539062 187.359375 179.542969 188.148438 C 180.542969 188.933594 181.113281 189.980469 181.246094 191.289062 L 178.832031 191.289062 C 178.75 190.644531 178.410156 190.078125 177.8125 189.582031 C 177.214844 189.089844 176.429688 188.851562 175.449219 188.851562 C 174.527344 188.851562 173.78125 189.089844 173.203125 189.5625 C 172.628906 190.03125 172.335938 190.699219 172.335938 191.550781 C 172.335938 192.164062 172.507812 192.660156 172.851562 193.046875 C 173.195312 193.4375 173.625 193.730469 174.132812 193.929688 C 174.640625 194.132812 175.351562 194.363281 176.273438 194.621094 C 177.378906 194.925781 178.277344 195.226562 178.949219 195.523438 C 179.625 195.824219 180.207031 196.28125 180.6875 196.902344 C 181.171875 197.523438 181.414062 198.359375 181.414062 199.421875 C 181.414062 200.246094 181.195312 201.015625 180.761719 201.742188 C 180.328125 202.46875 179.683594 203.050781 178.832031 203.507812 C 177.976562 203.957031 176.96875 204.183594 175.816406 204.183594 C 174.664062 204.183594 173.714844 203.988281 172.832031 203.589844 Z M 172.824219 203.582031 " fill-opacity="1" fill-rule="nonzero"></path><path fill="currentColor" d="M 232.496094 188.199219 C 233.84375 188.878906 234.867188 189.859375 235.585938 191.132812 C 236.304688 192.40625 236.664062 193.902344 236.664062 195.621094 C 236.664062 197.34375 236.304688 198.839844 235.585938 200.105469 C 234.867188 201.367188 233.84375 202.332031 232.496094 203 C 231.148438 203.664062 229.5625 204.003906 227.730469 204.003906 L 222.492188 204.003906 L 222.492188 187.167969 L 227.730469 187.167969 C 229.5625 187.167969 231.15625 187.511719 232.496094 188.191406 Z M 232.699219 200.472656 C 233.84375 199.320312 234.410156 197.703125 234.410156 195.628906 C 234.410156 193.558594 233.835938 191.902344 232.683594 190.730469 C 231.53125 189.554688 229.878906 188.960938 227.722656 188.960938 L 224.675781 188.960938 L 224.675781 202.199219 L 227.722656 202.199219 C 229.890625 202.199219 231.554688 201.625 232.699219 200.472656 Z M 232.699219 200.472656 " fill-opacity="1" fill-rule="nonzero"></path><path fill="currentColor" d="M 257.457031 188.960938 L 257.457031 194.589844 L 263.59375 194.589844 L 263.59375 196.398438 L 257.457031 196.398438 L 257.457031 202.199219 L 264.320312 202.199219 L 264.320312 204.011719 L 255.265625 204.011719 L 255.265625 187.152344 L 264.320312 187.152344 L 264.320312 188.960938 Z M 257.457031 188.960938 " fill-opacity="1" fill-rule="nonzero"></path><path fill="currentColor" d="M 307.6875 188.960938 L 307.6875 194.589844 L 313.824219 194.589844 L 313.824219 196.398438 L 307.6875 196.398438 L 307.6875 202.199219 L 314.550781 202.199219 L 314.550781 204.011719 L 305.496094 204.011719 L 305.496094 187.152344 L 314.550781 187.152344 L 314.550781 188.960938 Z M 307.6875 188.960938 " fill-opacity="1" fill-rule="nonzero"></path><path fill="currentColor" d="M 340.460938 195.605469 L 345.632812 204.011719 L 343.148438 204.011719 L 339.113281 197.441406 L 335.277344 204.011719 L 332.835938 204.011719 L 337.976562 195.605469 L 332.808594 187.183594 L 335.269531 187.183594 L 339.324219 193.773438 L 343.183594 187.183594 L 345.648438 187.183594 L 340.453125 195.605469 Z M 340.460938 195.605469 " fill-opacity="1" fill-rule="nonzero"></path><path fill="currentColor" d="M 374.097656 195.59375 C 373.136719 196.519531 371.679688 196.984375 369.710938 196.984375 L 366.472656 196.984375 L 366.472656 204.011719 L 364.269531 204.011719 L 364.269531 187.175781 L 369.703125 187.175781 C 371.605469 187.175781 373.046875 187.628906 374.035156 188.550781 C 375.023438 189.472656 375.519531 190.652344 375.519531 192.097656 C 375.519531 193.542969 375.039062 194.664062 374.082031 195.585938 Z M 372.417969 194.371094 C 372.996094 193.839844 373.289062 193.085938 373.289062 192.105469 C 373.289062 190.023438 372.097656 188.992188 369.710938 188.992188 L 366.472656 188.992188 L 366.472656 195.171875 L 369.710938 195.171875 C 370.929688 195.171875 371.835938 194.902344 372.414062 194.371094 Z M 372.417969 194.371094 " fill-opacity="1" fill-rule="nonzero"></path><path fill="currentColor" d="M 396.15625 188.960938 L 396.15625 194.589844 L 402.289062 194.589844 L 402.289062 196.398438 L 396.15625 196.398438 L 396.15625 202.199219 L 403.015625 202.199219 L 403.015625 204.011719 L 393.960938 204.011719 L 393.960938 187.152344 L 403.015625 187.152344 L 403.015625 188.960938 Z M 396.15625 188.960938 " fill-opacity="1" fill-rule="nonzero"></path><path fill="currentColor" d="M 430.910156 204.011719 L 426.902344 197.125 L 424.242188 197.125 L 424.242188 204.011719 L 422.042969 204.011719 L 422.042969 187.175781 L 427.476562 187.175781 C 428.75 187.175781 429.824219 187.390625 430.703125 187.824219 C 431.578125 188.257812 432.234375 188.851562 432.667969 189.589844 C 433.101562 190.332031 433.320312 191.175781 433.320312 192.128906 C 433.320312 193.289062 432.984375 194.3125 432.316406 195.195312 C 431.652344 196.078125 430.648438 196.667969 429.308594 196.960938 L 433.539062 204.011719 L 430.902344 204.011719 Z M 424.242188 195.367188 L 427.484375 195.367188 C 428.671875 195.367188 429.570312 195.074219 430.164062 194.484375 C 430.761719 193.894531 431.054688 193.117188 431.054688 192.128906 C 431.054688 191.140625 430.761719 190.355469 430.171875 189.808594 C 429.578125 189.261719 428.679688 188.984375 427.476562 188.984375 L 424.238281 188.984375 L 424.238281 195.359375 Z M 424.242188 195.367188 " fill-opacity="1" fill-rule="nonzero"></path><path fill="currentColor" d="M 452.421875 187.175781 L 454.625 187.175781 L 454.625 204.011719 L 452.421875 204.011719 Z M 452.421875 187.175781 " fill-opacity="1" fill-rule="nonzero"></path><path fill="currentColor" d="M 476.261719 188.960938 L 476.261719 194.589844 L 482.398438 194.589844 L 482.398438 196.398438 L 476.261719 196.398438 L 476.261719 202.199219 L 483.125 202.199219 L 483.125 204.011719 L 474.070312 204.011719 L 474.070312 187.152344 L 483.125 187.152344 L 483.125 188.960938 Z M 478.367188 184.039062 L 475.003906 186.089844 L 475.003906 184.351562 L 478.367188 182.347656 L 481.695312 184.351562 L 481.695312 186.089844 Z M 478.367188 184.039062 " fill-opacity="1" fill-rule="nonzero"></path><path fill="currentColor" d="M 515.390625 204.011719 L 513.1875 204.011719 L 504.351562 190.609375 L 504.351562 204.011719 L 502.152344 204.011719 L 502.152344 187.152344 L 504.351562 187.152344 L 513.1875 200.53125 L 513.1875 187.152344 L 515.390625 187.152344 Z M 515.390625 204.011719 " fill-opacity="1" fill-rule="nonzero"></path><path fill="currentColor" d="M 535.121094 191.148438 C 535.863281 189.839844 536.871094 188.804688 538.152344 188.066406 C 539.429688 187.324219 540.851562 186.957031 542.417969 186.957031 C 544.25 186.957031 545.851562 187.398438 547.21875 188.289062 C 548.589844 189.171875 549.585938 190.429688 550.214844 192.058594 L 547.578125 192.058594 C 547.113281 191.042969 546.441406 190.265625 545.558594 189.71875 C 544.683594 189.171875 543.628906 188.894531 542.410156 188.894531 C 541.1875 188.894531 540.179688 189.171875 539.242188 189.71875 C 538.308594 190.265625 537.574219 191.042969 537.042969 192.046875 C 536.511719 193.046875 536.242188 194.230469 536.242188 195.585938 C 536.242188 196.9375 536.511719 198.089844 537.042969 199.101562 C 537.574219 200.113281 538.308594 200.882812 539.242188 201.429688 C 540.179688 201.976562 541.234375 202.25 542.410156 202.25 C 543.582031 202.25 544.683594 201.980469 545.558594 201.445312 C 546.433594 200.90625 547.109375 200.125 547.578125 199.117188 L 550.214844 199.117188 C 549.585938 200.726562 548.589844 201.96875 547.21875 202.851562 C 545.851562 203.726562 544.25 204.167969 542.417969 204.167969 C 540.851562 204.167969 539.429688 203.800781 538.152344 203.066406 C 536.871094 202.332031 535.863281 201.316406 535.121094 200.015625 C 534.378906 198.710938 534.011719 197.238281 534.011719 195.59375 C 534.011719 193.945312 534.378906 192.472656 535.121094 191.164062 Z M 535.121094 191.148438 " fill-opacity="1" fill-rule="nonzero"></path><path fill="currentColor" d="M 569.171875 187.175781 L 571.375 187.175781 L 571.375 204.011719 L 569.171875 204.011719 Z M 569.171875 187.175781 " fill-opacity="1" fill-rule="nonzero"></path><path fill="currentColor" d="M 600.765625 200.269531 L 593.425781 200.269531 L 592.070312 204.011719 L 589.75 204.011719 L 595.835938 187.273438 L 598.371094 187.273438 L 604.429688 204.011719 L 602.113281 204.011719 L 600.757812 200.269531 Z M 600.136719 198.480469 L 597.089844 189.980469 L 594.046875 198.480469 Z M 600.136719 198.480469 " fill-opacity="1" fill-rule="nonzero"></path></svg>