<svg width="226" height="55" viewBox="0 0 226 55" fill="none" xmlns="http://www.w3.org/2000/svg">
<path d="M15.0803 26.6296C20.6248 20.7614 26.1694 15.109 31.7355 9.24085C32.0807 8.87409 32.5122 8.46418 32.5122 8.46418C32.5122 8.46418 32.0807 7.81695 31.7787 7.51491C29.8586 5.57324 28.0032 3.54528 26.1262 1.56046C25.8889 1.32314 25.63 1.10741 25.479 0.977966C16.8925 10.0822 8.4139 19.1002 0 28.0535C8.4139 37.0067 16.9141 46.0247 25.3496 54.9779C27.658 52.5616 29.988 50.1022 32.4906 47.4486C26.4067 41.0195 20.2581 34.5473 13.8937 27.8161C14.3468 27.471 14.7567 26.9747 15.1019 26.6296H15.0803Z" fill="white"/>
<path d="M45.3928 1.56052C43.5158 3.54534 41.6604 5.57331 39.7403 7.51497C39.4383 7.81701 39.0068 8.46424 39.0068 8.46424C39.0068 8.46424 39.4383 8.87415 39.7835 9.24091C45.3496 15.0875 50.8942 20.7615 56.4387 26.6296C56.7839 26.9748 57.1938 27.471 57.6468 27.8162C51.2825 34.5257 45.1339 41.0195 39.05 47.4486C41.5526 50.0807 43.8826 52.5401 46.191 54.978C54.6265 46.0031 63.1267 37.0068 71.5406 28.0535C63.1267 19.1218 54.6481 10.1039 46.0616 0.978027C45.9106 1.12905 45.6517 1.32321 45.4143 1.56052H45.3928Z" fill="white"/>
<path d="M185.837 29.2952C185.837 29.8471 185.837 30.7081 185.837 30.7081C185.837 30.7081 186.632 30.7081 187.117 30.7081C196.257 30.686 205.396 30.7301 214.558 30.686C216.28 30.686 218.046 30.4873 219.702 30.0237C222.991 29.0965 224.912 26.2928 225 22.6944C225.088 18.8532 223.764 16.778 220.254 15.3652C220.077 15.2989 219.9 15.2106 219.658 15.0782C219.878 14.9236 220.011 14.7691 220.165 14.7029C224.316 12.9589 224.47 5.16598 220.585 2.64931C218.576 1.34681 216.39 0.861145 214.072 0.861145C205.131 0.861145 196.169 0.861145 187.228 0.861145C186.698 0.861145 185.837 0.861145 185.837 0.861145C185.837 0.861145 185.837 1.72211 185.837 2.27402C185.881 11.2811 185.881 20.266 185.837 29.2731V29.2952ZM217.803 21.701C217.803 23.0476 217.075 23.8203 215.971 24.019C214.58 24.2839 213.145 24.3501 211.732 24.3943C209.26 24.4605 206.809 24.3943 204.337 24.3943C200.915 24.3943 197.471 24.3722 194.049 24.3943C193.652 24.3943 192.879 24.3943 192.879 24.3943C192.879 24.3943 192.879 24.3943 192.879 24.3722V18.4558H192.967C192.967 18.4558 193.608 18.4558 193.74 18.4558C200.672 18.4558 207.604 18.522 214.536 18.5883C215.066 18.5883 215.596 18.7869 216.103 18.9636C217.317 19.4051 217.825 20.2881 217.803 21.6789V21.701ZM192.879 7.30737C192.879 7.30737 193.541 7.30737 193.828 7.30737H194.557C200.584 7.32944 206.633 7.30737 212.681 7.37359C213.476 7.37359 214.271 7.63851 215.044 7.85927C215.883 8.10211 216.324 8.76439 216.346 9.66951C216.368 10.6188 215.993 11.3914 215.154 11.7005C214.359 11.9875 213.52 12.2083 212.681 12.2083C209.635 12.2745 206.588 12.2304 203.542 12.2304C200.407 12.2524 197.294 12.2303 194.182 12.2745C193.674 12.2745 192.879 12.2745 192.879 12.2745C192.879 12.2745 192.879 12.2745 192.879 12.2304V7.26322V7.30737Z" fill="white"/>
<path d="M153.275 13.2677C157.205 19.7802 160.98 26.0498 164.909 32.5623C170.605 21.8995 176.168 11.5237 181.864 0.883031C179.347 0.883031 177.206 0.927184 175.042 0.883031C174.645 0.883031 173.674 0.883031 173.674 0.883031C173.674 0.883031 173.298 1.6557 173.011 2.16345C170.914 6.15923 168.773 10.1329 166.653 14.1287C165.925 15.4974 165.174 16.8441 164.335 18.3894C160.605 12.186 157.006 6.20339 153.253 0C149.5 6.20339 145.88 12.2081 142.149 18.3673C141.862 17.8596 141.641 17.5284 141.465 17.1973C138.815 12.2522 136.188 7.30718 133.539 2.38421C133.341 2.00891 132.877 1.03756 132.877 1.03756C132.877 1.03756 132.391 1.03758 132.237 1.0155C129.83 0.883043 127.402 0.949274 124.643 0.949274C130.338 11.59 135.901 21.9657 141.575 32.5843C145.527 26.0277 149.346 19.736 153.231 13.2898L153.275 13.2677Z" fill="white"/>
<path d="M88.5915 30.686H90.9095C90.9095 30.5314 90.9095 29.9354 90.9095 29.5822C90.8653 27.794 90.9095 25.9838 90.9095 24.1735C90.9095 23.3346 90.8874 22.5178 90.8874 22.5178C90.8874 22.5178 91.6821 22.4737 92.4548 22.4737C95.3026 22.4737 98.1725 22.5178 101.02 22.4737C101.506 22.4737 102.698 22.4737 102.698 22.4737C102.698 22.4737 103.316 23.0697 103.758 23.4671C106.297 25.6526 108.879 27.8161 111.484 29.9133C111.683 30.0678 112.191 30.5094 112.39 30.6639H122.324C119.012 27.8161 115.591 24.88 112.169 21.9659C113.008 21.7672 113.471 21.6568 113.957 21.5465C118.659 20.3323 121.065 17.4403 121.397 12.6719C121.728 7.66059 119.873 4.19463 115.414 2.561C112.853 1.6338 110.094 1.0819 107.378 0.993599C99.8944 0.772838 92.4106 0.9053 84.9268 0.861148C84.11 0.861148 83.8672 1.17021 83.8672 2.0091C83.8672 11.2148 83.8672 20.4206 83.8672 29.6263V30.686H86.2293C87.002 30.686 87.7967 30.686 88.5694 30.686H88.5915ZM90.8432 7.02039H91.5055C91.5055 7.02039 91.5938 7.02039 91.6601 7.02039H97.7972C99.6295 7.02039 101.484 7.02038 103.316 7.06453C104.221 7.06453 105.104 7.10869 105.987 7.15284C106.87 7.19699 107.754 7.24114 108.659 7.30737C109.498 7.3736 110.359 7.37359 111.153 7.59435C113.979 8.3891 115.171 10.9941 114.089 13.8861C113.67 15.0119 112.787 15.6301 111.727 15.8508C110.359 16.1158 108.968 16.3144 107.599 16.3365C104.332 16.3807 101.042 16.3586 97.7752 16.3586L90.8432 16.3807V7.02039Z" fill="white"/>
<path d="M225 37.994H82.8301V38.4135H225V37.994Z" fill="white"/>
<path d="M86.7054 44.1853L83.168 54.673H85.2489L85.9148 52.6754H89.8684L90.5343 54.673H92.6152L89.0777 44.1853H86.7471H86.7054ZM86.4142 51.0106L87.8291 46.6407L89.2441 51.0106H86.3726H86.4142Z" fill="white"/>
<path d="M103.602 50.4706H107.015C106.848 51.2197 106.557 51.8439 106.057 52.2601C105.558 52.6763 104.975 52.8844 104.185 52.8844C103.56 52.8844 103.019 52.7595 102.562 52.4682C102.104 52.1769 101.729 51.8023 101.479 51.2613C101.23 50.7202 101.105 50.1376 101.105 49.4301C101.105 48.7226 101.23 48.14 101.479 47.6405C101.729 47.0995 102.104 46.7249 102.562 46.4336C103.019 46.1423 103.519 46.0174 104.101 46.0174C104.642 46.0174 105.1 46.1423 105.475 46.3504C105.891 46.6001 106.182 46.933 106.39 47.3492H108.679C108.388 46.3088 107.805 45.518 106.973 44.9354C106.141 44.3527 105.183 44.0614 104.06 44.0614C103.103 44.0614 102.27 44.2695 101.479 44.7273C100.689 45.1851 100.106 45.8093 99.6483 46.6417C99.1905 47.474 98.9824 48.3897 98.9824 49.4301C98.9824 50.4706 99.1905 51.3861 99.6483 52.1769C100.106 52.9676 100.689 53.6335 101.479 54.0913C102.229 54.5491 103.103 54.7572 104.06 54.7572C104.892 54.7572 105.683 54.5491 106.349 54.1745C107.015 53.8 107.597 53.3006 108.013 52.6763C108.43 52.052 108.721 51.3862 108.846 50.637V48.8058H103.477V50.4289L103.602 50.4706Z" fill="white"/>
<path d="M122.828 49.3056C123.203 48.7646 123.411 48.1403 123.411 47.4328C123.411 46.8501 123.286 46.2675 122.995 45.8097C122.704 45.3519 122.329 44.9357 121.788 44.6444C121.247 44.3531 120.581 44.2282 119.832 44.2282H116.128V54.7159H118.126V50.6374H119.041L121.205 54.7159H123.494L121.122 50.4709C121.871 50.2628 122.412 49.8882 122.828 49.3056ZM119.749 49.0559H118.084V45.9762H119.749C120.29 45.9762 120.706 46.101 120.956 46.3923C121.205 46.642 121.372 47.0166 121.372 47.516C121.372 48.0154 121.247 48.39 120.956 48.6813C120.664 48.9726 120.29 49.0975 119.749 49.0975V49.0559Z" fill="white"/>
<path d="M132.859 44.2282H130.861V54.7159H132.859V44.2282Z" fill="white"/>
<path d="M151.504 44.2282H149.507V54.7159H151.504V44.2282Z" fill="white"/>
<path d="M165.613 51.4268L161.119 44.1853H159.121V54.7146H161.119V47.5147L165.613 54.7146H167.57V44.1853H165.613V51.4268Z" fill="white"/>
<path d="M179.262 52.5518L176.557 44.2282H174.435L178.055 54.7159H180.469L184.09 44.2282H181.967L179.262 52.5518Z" fill="white"/>
<path d="M190.957 54.7146H196.7V52.9667H192.913V50.2199H196.243V48.5552H192.913V45.8916H196.7V44.1853H190.957V54.7146Z" fill="white"/>
<path d="M209.602 49.1802C209.186 48.9721 208.687 48.764 208.021 48.5976C207.563 48.4311 207.188 48.3062 206.939 48.1814C206.689 48.0565 206.481 47.9317 206.273 47.7236C206.106 47.5571 206.023 47.3074 206.023 47.0161C206.023 46.5999 206.148 46.3086 206.356 46.1005C206.606 45.8924 206.897 45.7675 207.272 45.7675C207.729 45.7675 208.062 45.8924 208.354 46.1005C208.645 46.3086 208.77 46.6415 208.77 46.9745H210.934C210.851 46.0172 210.518 45.3097 209.894 44.7687C209.269 44.2277 208.437 43.978 207.396 43.978C206.731 43.978 206.106 44.1028 205.565 44.3525C205.024 44.6023 204.608 44.9352 204.317 45.393C204.025 45.8508 203.859 46.3918 203.859 47.0161C203.859 47.682 203.984 48.223 204.275 48.5976C204.566 49.0137 204.899 49.3051 205.316 49.4715C205.732 49.6796 206.231 49.8461 206.897 50.0542C207.355 50.179 207.729 50.3039 208.021 50.4287C208.27 50.5536 208.52 50.7201 208.687 50.8865C208.853 51.0946 208.936 51.3443 208.936 51.6357C208.936 52.0102 208.811 52.3432 208.52 52.5513C208.229 52.7594 207.896 52.8842 207.438 52.8842C206.98 52.8842 206.647 52.7593 206.356 52.5096C206.106 52.2599 205.94 51.927 205.94 51.4692H203.817C203.817 52.0935 203.984 52.6761 204.317 53.1339C204.65 53.5917 205.066 53.9662 205.649 54.216C206.19 54.4657 206.814 54.5905 207.521 54.5905C208.229 54.5905 208.895 54.4657 209.394 54.1744C209.935 53.883 210.31 53.5085 210.601 53.0091C210.892 52.5097 211.017 52.0102 211.017 51.4276C211.017 50.7617 210.851 50.2623 210.559 49.8461C210.268 49.4299 209.935 49.1386 209.519 48.9305L209.602 49.1802Z" fill="white"/>
<path d="M217.927 45.8929H220.549V54.7159H222.546V45.8929H225.168V44.2282H217.927V45.8929Z" fill="white"/>
</svg>
